<?xml version="1.0" standalone="no"?>
<!DOCTYPE svg PUBLIC "-//W3C//DTD SVG 20010904//EN"
 "http://www.w3.org/TR/2001/REC-SVG-20010904/DTD/svg10.dtd">
<svg version="1.0" xmlns="http://www.w3.org/2000/svg"
 width="1628.000000pt" height="1628.000000pt" viewBox="0 0 1628.000000 1628.000000"
 preserveAspectRatio="xMidYMid meet">

<g transform="translate(0.000000,1628.000000) scale(0.100000,-0.100000)"
fill="#000000" stroke="none">
<path d="M4640 8847 l0 -7242 72 -62 c40 -33 129 -107 198 -164 69 -57 175
-144 235 -194 61 -50 205 -170 320 -265 116 -95 234 -194 264 -219 52 -44 132
-110 353 -291 56 -46 109 -90 116 -97 35 -34 100 -83 110 -83 9 0 13 187 14
713 l3 712 1625 3 c893 1 1627 6 1631 10 4 4 20 54 37 112 16 58 60 206 97
330 38 124 89 297 115 385 26 88 98 329 160 535 62 206 134 447 160 535 26 88
76 255 110 370 34 116 77 260 95 320 18 61 63 211 100 335 38 124 89 297 115
385 26 88 98 329 160 535 111 369 158 529 258 865 27 94 84 285 127 425 126
420 187 624 315 1055 67 226 132 444 145 485 13 41 42 139 64 216 l41 142 -59
208 c-179 630 -281 988 -376 1324 -58 206 -116 411 -129 455 -14 44 -50 172
-81 285 -31 113 -65 232 -75 265 -10 33 -34 116 -54 185 -19 69 -78 278 -131
465 -257 906 -348 1228 -375 1320 -16 55 -50 174 -75 265 -25 91 -73 257 -105
370 -32 113 -107 374 -165 580 -108 383 -186 656 -369 1300 l-104 365 -2471 3
-2471 2 0 -7243z"/>
</g>
</svg>
